<svg xmlns="http://www.w3.org/2000/svg" viewBox="0 0 392.408 392.408" width="512" height="512">
  <g fill="#6a8c75">
    <path d="M78.767 78.408l98.907 30.035 4.94-16.267L76.654 60 29.562 87.175l8.497 14.724z"/>
    <path d="M78.767 108.408l98.907 30.035 4.94-16.267L76.654 90l-47.092 27.175 8.497 14.724z"/>
    <path d="M78.767 138.408l98.907 30.035 4.94-16.267L76.654 120l-47.092 27.175 8.497 14.724z"/>
    <path d="M78.767 168.408l98.907 30.035 4.94-16.267L76.654 150l-47.092 27.175 8.497 14.724z"/>
    <path d="M78.767 198.408l98.907 30.035 4.94-16.267L76.654 180l-47.092 27.174 8.496 14.724z"/>
    <path d="M78.767 228.408l98.907 30.035 4.94-16.267L76.654 210l-47.092 27.174 8.496 14.724z"/>
    <path d="M78.767 258.408l98.907 30.035 4.94-16.267L76.654 240l-47.092 27.174 8.496 14.724z"/>
    <path d="M78.767 288.408l98.907 30.035 4.94-16.267L76.654 270l-47.092 27.174 8.496 14.724zM240.333 78.408l98.907 30.035 4.939-16.267L238.219 60l-47.091 27.175 8.496 14.724z"/>
    <path d="M240.333 48.408l98.907 30.035 4.939-16.267L238.219 30l-47.091 27.175 8.496 14.724z"/>
    <path d="M240.333 18.408l98.907 30.035 4.939-16.267L238.219 0l-47.091 27.175 8.496 14.724zM240.333 108.408l98.907 30.035 4.939-16.267L238.219 90l-47.091 27.175 8.496 14.724z"/>
    <path d="M240.333 138.408l98.907 30.035 4.939-16.267L238.219 120l-47.091 27.175 8.496 14.724z"/>
    <path d="M240.333 168.408l98.907 30.035 4.939-16.267L238.219 150l-47.091 27.175 8.496 14.724z"/>
    <path d="M240.333 198.408l98.907 30.035 4.939-16.267L238.219 180l-47.091 27.174 8.496 14.724z"/>
    <path d="M240.333 228.408l98.907 30.035 4.939-16.267L238.219 210l-47.091 27.174 8.496 14.724z"/>
    <path d="M240.333 258.408l98.907 30.035 4.939-16.267L238.219 240l-47.091 27.174 8.496 14.724z"/>
    <path d="M240.333 288.408l98.907 30.035 4.939-16.267L238.219 270l-47.091 27.174 8.496 14.724z"/>
    <path d="M339.423 376.149v-28.311l4.756-15.662L238.219 300l-47.092 27.174 4.756 8.241v40.734h-18.025v-28.311l4.756-15.662L76.654 300l-47.092 27.174 4.755 8.241v40.734H9.204v16.259h374v-16.259h-43.781zm-238.336 0v-34.564l51.921 12.461v22.103h-51.921zm161.567 0v-34.564l51.92 12.461v22.103h-51.92z"/>
  </g>
</svg>