<svg xmlns="http://www.w3.org/2000/svg" viewBox="0 0 512 512" style="fill: #fff;">
  <path d="M506.6 235.9L217.3 70.4c-22.3-12.8-52.9-5.9-67.6 15.2l-56 80.1c-5.5 7.9-8.4 17.1-8.4 26.7 0 16.6 8.9 32 23.3 40.3l61 35.2-11 14.7c-6 8-9.3 17.8-9.3 27.8 0 10.2 3.7 19.9 9.8 27.8l-16.2 24.4H64v-32.1c0-5.9-4.8-10.6-10.7-10.6H10.7C4.8 320 0 324.7 0 330.6v106.8c0 5.9 4.8 10.7 10.7 10.7h42.7c5.9 0 10.7-4.8 10.7-10.7v-10.7H143c21.4 0 41.4-10.7 53.3-28.5l17.5-26.3c3.4.7 6.8 1.4 10.2 1.4 17 0 33-9 41.7-23.6l11.7-19.6 90.8 52.4c1.6.9 3.5 1.4 5.3 1.4 1 0 2.1-.1 3.1-.4 2.8-.9 5.2-2.8 6.5-5.5l7.9-15.8c1.3.1 2.5.4 3.9.4 41.2 0 74.7-33.5 74.7-74.7 0-4.5-.7-9.2-1.7-14l38.4-19.2c3.5-1.8 5.8-5.3 5.9-9.3-.1-3.9-2.2-7.6-5.6-9.5zM42.7 426.7H21.3v-85.3h21.3l.1 85.3zm135.7-40.3c-7.9 11.9-21.2 19-35.5 19H64V384h78.9c7.2 0 13.8-3.6 17.8-9.5l14.8-22.2 18.3 11-15.4 23.1zm68.8-47.6c-7.5 12.4-25 16.8-37.4 9.4L182.7 332c-7.5-4.5-12.1-12.7-12.1-21.4 0-5.4 1.8-10.7 5-14.9l12.6-16.8 70.6 40.7-11.6 19.2zm121.7 19.7l-249.6-144c-7.8-4.5-12.6-12.8-12.6-21.8 0-5.2 1.6-10.2 4.6-14.4l26.8-38.3 264 152.3-33.2 66.2zm32.7-17.8l22.3-44.7 23.7-11.8c.1 1.3.4 2.7.4 3.9 0 27-20.3 49.1-46.4 52.6zm14.8-64.8L150.3 122.4l17-24.2c5.6-8 14.8-12.8 24.6-12.8 5.2 0 10.4 1.4 14.9 4l272 155.4-62.4 31.1z"/>
  <circle cx="352" cy="309.3" r="10.7"/>
</svg>