<svg xmlns="http://www.w3.org/2000/svg" viewBox="0 0 512 512" style="fill: #fff;">
  <path d="M256 102.4c-20 0-85.3 1.8-85.3 25.6v85.3c0 4.3 3.3 8 7.6 8.5s8.3-2.3 9.3-6.6c4.8-3.8 28.8-10.4 68.5-10.4s63.7 6.7 68.5 10.4c1 4.2 5 7.1 9.3 6.6s7.6-4.1 7.6-8.5V128c-.2-23.8-65.5-25.6-85.5-25.6zm68.3 94c-20.8-7.8-54.8-8.6-68.3-8.6s-47.5.8-68.3 8.6v-66.6c5.2-3.8 29.1-10.3 68.3-10.3s63 6.5 68.3 10.3v66.6zM170.7 384v68.3c0 20.8 49.9 24.8 75.8 25.5.3.1.6.1 1 .1.3 0 .5-.1.7-.1 3 .1 5.7.1 7.8.1 20 0 85.3-1.8 85.3-25.6V384c0-4.7-3.8-8.5-8.5-8.5H179.2c-4.7 0-8.5 3.8-8.5 8.5zm153.6 8.5v58c-4.9 3.6-26.5 9.5-61.6 10.1l40.9-68.1h20.7zm-40.7 0l-40.8 68c-8.1-.3-15.3-.9-21.7-1.7l39.7-66.3h22.8zm-95.9 0h53.2L203 455.8c-5.3-.9-10.5-2.7-15.3-5.3v-58zM259.2 333.5c-.5-.2-1-.4-1.5-.5-1.1-.3-2.3-.3-3.4 0-.5.1-1.1.3-1.5.5-.5.2-1.1.4-1.5.8-.4.3-.9.7-1.3 1-.8.8-1.4 1.8-1.8 2.8-.9 2.1-.9 4.4 0 6.5.4 1 1 2 1.8 2.8.4.3.9.7 1.3 1 .5.3 1 .6 1.5.8.5.2 1 .4 1.5.5 1.1.2 2.3.2 3.4 0 .5-.1 1.1-.3 1.5-.5.5-.2 1.1-.4 1.5-.8.4-.3.9-.7 1.3-1 3.3-3.4 3.3-8.8 0-12.1-.4-.4-.8-.7-1.3-1-.4-.4-.9-.6-1.5-.8z"/>
  <path d="M408.6 208.2c2.7-8.1-.1-17.1-6.9-22.2l-26.2-19.6v-55.5c0-15.9-3.4-31.7-10-46.1-1.1-2.5-2.4-4.9-3.7-7.3-9.2-16.8-22.6-30.9-38.9-41C305.3 5.7 285.1 0 264.5 0h-17.1C227 0 207 5.6 189.6 16.2h-.1c-.1.1-.3.2-.4.2-18.7 11.6-33.5 28.4-42.6 48.3l-.1.3v.1c-6.5 14.4-9.8 30-9.8 45.7v55.5L110.4 186c-6.8 5.1-9.6 14.1-6.9 22.2s10.3 13.6 18.9 13.6h14.3v213.3c0 42.4 34.4 76.8 76.8 76.8h85.3c42.4 0 76.8-34.4 76.8-76.8V221.9h14.3c8.4 0 16-5.5 18.7-13.7zm-272.1-3.4h-14.3c-1.2 0-2.3-.8-2.7-2s0-2.4 1-3.2l15.9-12 .1 17.2zM319.4 35c1.3.9 2.6 1.8 3.8 2.7 1 .8 2 1.5 2.9 2.4 3.1 2.6 6 5.5 8.7 8.5l.2.2c2.7 3.1 5.2 6.4 7.5 9.8.7 1 1.3 2.1 2 3.2.8 1.3 1.5 2.7 2.3 4.1-3 1.5-6.3 2.3-9.6 2.3-11.8 0-21.3-9.6-21.3-21.3-.2-4.2 1.1-8.4 3.5-11.9zm-126.9.1c2.4 3.5 3.7 7.6 3.8 11.9 0 11.8-9.6 21.3-21.3 21.3-3.3 0-6.6-.8-9.6-2.4 6.6-12.2 15.9-22.7 27.1-30.8zm-38.9 212.4l6.8 5.1c6.4 4.8 10.2 12.4 10.2 20.5v17.1h-17.1v-42.7zm0 59.7h17.1v20c0 6.8-2.7 13.3-7.5 18.1l-9.6 9.6v-47.7zm204.8 47.7l-9.6-9.6c-4.8-4.8-7.5-11.3-7.5-18.1v-20h17.1v47.7zm0-64.8h-17.1V273c0-8.1 3.8-15.6 10.2-20.5l6.8-5.1.1 42.7zm0-64l-17.1 12.8c-10.7 8.1-17 20.7-17.1 34.1v54.1c0 11.3 4.5 22.2 12.5 30.2l21.6 21.6v56.2c0 33-26.8 59.7-59.7 59.7h-85.3c-33 0-59.7-26.8-59.7-59.7V379l21.6-21.6c8-8 12.5-18.8 12.5-30.2v-54.1c0-13.4-6.3-26.1-17.1-34.1l-17.1-12.8V110.9c0-10 1.6-20 4.7-29.5 5.2 2.6 10.8 3.9 16.6 3.9 21.2 0 38.4-17.2 38.4-38.4 0-7.4-2.1-14.6-6.1-20.7 12.6-6 26.3-9.1 40.3-9.1h17.1c13.9 0 27.7 3.2 40.3 9.2-4 6.2-6.1 13.4-6.1 20.7 0 21.2 17.2 38.4 38.4 38.4 5.8 0 11.4-1.4 16.6-3.9 3.1 9.5 4.7 19.5 4.7 29.5v115.1zm31.3-21.3h-14.3v-17.1l15.9 12c.7.5 1.1 1.4 1.1 2.3.1 1.5-1.1 2.8-2.7 2.8z"/>
  <path d="M271.3 319.4c3.9 0 7.4-2.7 8.3-6.5s-.9-7.8-4.4-9.6c-12.1-6.1-26.3-6.1-38.4 0-2.7 1.4-4.5 4.1-4.6 7.2-.1 3 1.4 5.9 3.9 7.6s5.8 1.8 8.5.4c7.1-3.6 15.6-3.6 22.7 0 1.3.6 2.6.9 4 .9zM286.5 288.9c3.9 0 7.4-2.7 8.3-6.5.9-3.8-.9-7.8-4.4-9.6a76.675 76.675 0 0 0-68.9 0c-4.2 2.1-5.8 7.3-3.7 11.5s7.3 5.9 11.5 3.7c16.8-8.4 36.6-8.4 53.4 0 1.2.5 2.5.9 3.8.9zM301.8 258.2c4 0 7.4-2.7 8.3-6.6s-.9-7.8-4.5-9.6c-31.3-15.5-68-15.5-99.3 0-4.2 2.1-5.9 7.2-3.8 11.4 2.1 4.2 7.2 5.9 11.4 3.8 26.5-13.1 57.5-13.1 84 0 1.3.7 2.6 1 3.9 1z"/>
</svg>