<svg xmlns="http://www.w3.org/2000/svg" width="512" height="512">
  <path d="M447.445 490.667h-30.891V53.333c0-5.888-4.779-10.667-10.667-10.667h-32v-32C373.888 4.779 369.109 0 363.221 0H149.888C144 0 139.221 4.779 139.221 10.667v32h-32c-5.888 0-10.667 4.779-10.667 10.667v437.333h-32c-5.888 0-10.667 4.779-10.667 10.667s4.779 10.667 10.667 10.667h128c5.888 0 10.667-4.779 10.667-10.667V448h106.667v53.333c0 5.888 4.779 10.667 10.667 10.667h126.891c5.888 0 10.667-4.779 10.667-10.667-.001-5.888-4.78-10.666-10.668-10.666zm-244.224-96c0 5.888-4.779 10.667-10.667 10.667h-42.667c-5.888 0-10.667-4.779-10.667-10.667V352c0-5.888 4.779-10.667 10.667-10.667h42.667c5.888 0 10.667 4.779 10.667 10.667v42.667zm0-85.334c0 5.888-4.779 10.667-10.667 10.667h-42.667c-5.888 0-10.667-4.779-10.667-10.667v-42.667c0-5.888 4.779-10.667 10.667-10.667h42.667c5.888 0 10.667 4.779 10.667 10.667v42.667zm0-85.333c0 5.888-4.779 10.667-10.667 10.667h-42.667c-5.888 0-10.667-4.779-10.667-10.667v-42.667c0-5.888 4.779-10.667 10.667-10.667h42.667c5.888 0 10.667 4.779 10.667 10.667V224zm0-85.333c0 5.888-4.779 10.667-10.667 10.667h-42.667c-5.888 0-10.667-4.779-10.667-10.667V96c0-5.888 4.779-10.667 10.667-10.667h42.667c5.888 0 10.667 4.779 10.667 10.667v42.667zm85.334 256c0 5.888-4.779 10.667-10.667 10.667h-42.667c-5.888 0-10.667-4.779-10.667-10.667V352c0-5.888 4.779-10.667 10.667-10.667h42.667c5.888 0 10.667 4.779 10.667 10.667v42.667zm0-85.334c0 5.888-4.779 10.667-10.667 10.667h-42.667c-5.888 0-10.667-4.779-10.667-10.667v-42.667c0-5.888 4.779-10.667 10.667-10.667h42.667c5.888 0 10.667 4.779 10.667 10.667v42.667zm0-85.333c0 5.888-4.779 10.667-10.667 10.667h-42.667c-5.888 0-10.667-4.779-10.667-10.667v-42.667c0-5.888 4.779-10.667 10.667-10.667h42.667c5.888 0 10.667 4.779 10.667 10.667V224zm0-85.333c0 5.888-4.779 10.667-10.667 10.667h-42.667c-5.888 0-10.667-4.779-10.667-10.667V96c0-5.888 4.779-10.667 10.667-10.667h42.667c5.888 0 10.667 4.779 10.667 10.667v42.667zm85.333 256c0 5.888-4.779 10.667-10.667 10.667h-42.667c-5.888 0-10.667-4.779-10.667-10.667V352c0-5.888 4.779-10.667 10.667-10.667h42.667c5.888 0 10.667 4.779 10.667 10.667v42.667zm0-85.334c0 5.888-4.779 10.667-10.667 10.667h-42.667c-5.888 0-10.667-4.779-10.667-10.667v-42.667c0-5.888 4.779-10.667 10.667-10.667h42.667c5.888 0 10.667 4.779 10.667 10.667v42.667zm0-85.333c0 5.888-4.779 10.667-10.667 10.667h-42.667c-5.888 0-10.667-4.779-10.667-10.667v-42.667c0-5.888 4.779-10.667 10.667-10.667h42.667c5.888 0 10.667 4.779 10.667 10.667V224zm0-85.333c0 5.888-4.779 10.667-10.667 10.667h-42.667c-5.888 0-10.667-4.779-10.667-10.667V96c0-5.888 4.779-10.667 10.667-10.667h42.667c5.888 0 10.667 4.779 10.667 10.667v42.667z" fill="#ad9a82"/>
</svg>