<svg xmlns="http://www.w3.org/2000/svg" viewBox="0 0 512 512" style="fill: #fff;">
  <path d="M7 271.2c30.3 26 64.6 55.4 131 55.4s100.7-29.4 131-55.4c28.6-24.6 53.4-45.8 105-45.8s76.3 21.2 105 45.8c8.4 7.2 21 6.2 28.2-2.2 7.2-8.4 6.2-21-2.2-28.2-30.3-26-64.6-55.4-131-55.4s-100.7 29.4-131 55.4c-28.6 24.6-53.4 45.8-105 45.8s-76.3-21.2-105-45.8c-8.4-7.2-21-6.2-28.2 2.2-7.2 8.4-6.2 21 2.2 28.2z"/>
  <path d="M7 161.8c30.3 26 64.6 55.4 131 55.4s100.7-29.4 131-55.4c28.6-24.6 53.4-45.8 105-45.8s76.3 21.2 105 45.8c8.4 7.2 21 6.2 28.2-2.2 7.2-8.4 6.2-21-2.2-28.2-30.3-26-64.6-55.4-131-55.4s-100.7 29.4-131 55.4c-28.6 24.6-53.4 45.8-105 45.8S61.7 156 33 131.4c-8.4-7.2-21-6.2-28.2 2.2-7.2 8.4-6.2 21 2.2 28.2zM505 350.2c-30.3-26-64.6-55.4-131-55.4s-100.7 29.4-131 55.4c-28.6 24.6-53.4 45.8-105 45.8s-76.3-21.2-105-45.8c-8.4-7.2-21-6.2-28.2 2.2-7.2 8.4-6.2 21 2.2 28.2 30.3 26 64.6 55.4 131 55.4s100.7-29.4 131-55.4c28.6-24.6 53.4-45.8 105-45.8s76.3 21.2 105 45.8c8.4 7.2 21 6.2 28.2-2.2 7.2-8.4 6.2-21-2.2-28.2z"/>
</svg>