<svg xmlns="http://www.w3.org/2000/svg" viewBox="0 0 407.51 407.51" style="fill: #fff;">
  <path d="M167.184 118.072h57.469c.358.019.716.019 1.074 0 5.474-.297 9.672-4.975 9.375-10.449 0-5.771-4.678-10.449-10.449-10.449h-57.469c-5.771 0-10.449 4.678-10.449 10.449-.019.358-.019.716 0 1.074.296 5.474 4.974 9.672 10.449 9.375zM167.184 206.889h177.633c.358.019.716.019 1.074 0 5.474-.297 9.672-4.975 9.375-10.449 0-5.771-4.678-10.449-10.449-10.449H167.184c-5.771 0-10.449 4.678-10.449 10.449-.019.358-.019.716 0 1.074.296 5.474 4.974 9.671 10.449 9.375zM167.184 159.868h177.633c.358.019.716.019 1.074 0 5.474-.297 9.672-4.975 9.375-10.449 0-5.771-4.678-10.449-10.449-10.449H167.184c-5.771 0-10.449 4.678-10.449 10.449-.019.358-.019.716 0 1.074.296 5.474 4.974 9.672 10.449 9.375z"/>
  <path d="M396.016 41.795H115.984a11.494 11.494 0 0 0-11.494 10.449V94.04H11.494A11.494 11.494 0 0 0 0 104.488v250.776a9.929 9.929 0 0 0 6.269 8.882 8.874 8.874 0 0 0 5.224 1.567 10.451 10.451 0 0 0 5.747-1.567l63.739-45.453h210.547a12.017 12.017 0 0 0 11.494-10.971v-41.273h23.51l63.216 45.453a14.093 14.093 0 0 0 6.269 1.567 12.54 12.54 0 0 0 11.494-10.449V52.244a11.491 11.491 0 0 0-11.493-10.449zm-113.894 256H77.845a16.197 16.197 0 0 0-6.792 1.567l-50.155 35.527V114.937h83.592v140.539a12.016 12.016 0 0 0 11.494 10.971h166.139v31.348zm104.49-15.151l-50.155-35.526a16.193 16.193 0 0 0-6.792-1.567H125.388V62.693h261.224v219.951z"/>
</svg>