<svg xmlns="http://www.w3.org/2000/svg" viewBox="0 0 512 512" style="fill: #fff;">
  <path d="M406 421c58.4 0 106-47.1 106-105 0-34.3-17.1-66.3-44.7-85.7 9.6-14.5 14.7-31.5 14.7-49.3 0-39.4-26.7-73.8-63.7-85.4 1.8-6.4 2.7-13 2.7-19.6 0-41.5-33.5-76-75-76s-75 34.5-75 76c0 6.6.9 13.2 2.7 19.6-14.7 4.7-28.1 13-38.8 24.5-1 1.1-1.9 2.1-2.9 3.2C209.1 63.8 149.4 7 146.3 4.1c-5.8-5.4-14.8-5.4-20.6 0C121.9 7.7 31 94.1 31 166c0 3.9.3 7.4.6 10.6C11.2 204.2 0 237.5 0 271c0 77.1 53 140.8 121 149.1V482H15c-8.3 0-15 6.7-15 15s6.7 15 15 15h482c8.3 0 15-6.7 15-15s-6.7-15-15-15H361v-61h45zm76-105c0 41.4-34.1 75-76 75h-45v-67.7l87.6-69.4C469.2 267.7 482 291 482 316zm-85.9-194.4c31.4 2.7 55.9 28.8 55.9 59.4 0 30.7-19.2 40.3-21.8 49.2L361 285V143.7l31.6-22.8c1.1.3 2.3.6 3.5.7zM239.3 249.8L151 316v-82l63.3-42.2c13 16.7 21.5 36.8 25 58zm.8 36.9c-6.1 53.2-42.8 95.5-89.1 103.1v-36.3l89.1-66.8zM121 389.8c-51.4-8.3-91-58.4-91-118.8 0-19.4 4.7-38.7 13.4-56.4l77.6 77.6v97.6zM136 121c-8.3 0-15 6.7-15 15v113.8l-61-61c4.2-6.9 1-11.6 1-22.8 0-42.9 47.4-101.1 75-129.9 26 27 69.5 80.1 74.5 122.1L151 198v-62c0-8.3-6.7-15-15-15zm195 361H151v-61.9c23.5-2.9 45.2-12.5 63.5-27.1 19.3 18 44.6 28.1 71.5 28.1h45V482zm0-91h-45c-18.8 0-36.4-6.9-50.1-19.2 31.8-38.9 42-91.5 30.6-138.8l64.5 32.3V391zm6.2-267.2c-3.9 2.8-6.2 7.3-6.2 12.2v95.7l-81.1-40.6c-2.7-4.7-5.6-9.2-8.8-13.6 1.6-29.6 24.7-53.4 54.8-56 5.2-.4 9.7-3.5 12.1-8.1 2.4-4.6 2.2-10.1-.5-14.5-4.3-7.3-6.5-15-6.5-22.9 0-24.9 20.6-46 45-46s45 21.1 45 46c0 3.3-.4 6.6-1.2 9.9l-52.6 37.9z"/>
</svg>