<svg xmlns="http://www.w3.org/2000/svg" viewBox="0 0 400 399.56" style="fill: #fff;">
  <path d="M171 291.35q14.67 24.76 43.37 43.72L250 355l35.46-19.83.17-.1c38.87-25.61 58.58-59.53 58.58-100.82v-124.8H155.77v124.8q0 30.57 14.35 55.64M208 261l-46.56-26.88v-8.54L208 252.43zm0 6.53v8.55l-45.52-26.28c-.4-3-.69-6-.85-9zm0 15.08v8.54l-41.67-24.06q-1.55-4.94-2.61-10.05zm0 15.07v8.54l-32.82-18.94a103.94 103.94 0 0 1-5.87-11.94zM161.42 219v-8.54l46.58 26.9v8.54zM208 230.83L161.42 204v-8.6L208 222.28zm-25.92 66.93l25.92 15v10.9a130.36 130.36 0 0 1-25.94-25.9zm31.58 30v-150.7l7.4-4.27v159.55l-3.67-2c-1.29-.89-2.53-1.73-3.75-2.59zm65.27-19.3l18.59 10.73q-2.94 2.47-6.1 4.86l-12.49-7.22zm0-135.66l59.61 34.42v8.54l-59.61-34.41zm59.61 27.89l-59.61-34.42v-8.54l59.61 34.42zm-59.63 77.61l37.37 21.58c-1.53 1.95-3.13 3.88-4.81 5.77l-32.56-18.8zm0-6.52v-8.55l44.78 25.86c-1.27 2.1-2.61 4.17-4 6.21zm0-15.08v-8.54l50.8 29.33c-1 2.26-2.07 4.48-3.23 6.68zm0-15.07v-8.55l55.34 32c-.71 2.42-1.49 4.81-2.38 7.17zm0-15.07V218l58.3 33.66c-.4 2.6-.89 5.17-1.48 7.69zm0-15.08v-8.54l59.56 34.39c-.07 2.79-.23 5.54-.5 8.25zm0-15.07v-8.55l59.61 34.42v8.55zm59.61-10.8l-59.61-34.42v-8.89l59.61 34.48zM273.25 335.5l-7.4 4.14V146.91l7.4-4.27zm-13.05 7.3l-7.4 4.14V154.45l7.4-4.27zm-13 4.14l-7.4-4.14V162l7.4-4.27zm-13.06-7.3l-7.4-4.14v-166l7.4-4.27zm48.48-9.35l-3.66 2v-9l7.49 4.33c-1.3.94-2.57 1.81-3.88 2.67zm19.43-15l-23.09-13.33v-8.54l28.61 16.52c-1.82 1.77-3.66 3.56-5.57 5.31zm36.52-200.14v55.14l-62.14-35.94L208 173.79v42l-46.56-26.88v-73.8zM297.07 84.16c-11.06 0-16.47-3-22.2-6.07-6.1-3.32-12.41-6.75-24.9-6.75s-18.81 3.43-24.91 6.75c-5.73 3.12-11.14 6.07-22.19 6.07s-16.47-3-22.2-6.07c-6.1-3.32-12.41-6.75-24.9-6.75V77c11 0 16.46 3 22.2 6.07 6.09 3.32 12.4 6.75 24.9 6.75s18.8-3.43 24.9-6.75C233.5 79.94 238.91 77 250 77s16.47 3 22.2 6.07c6.1 3.32 12.4 6.75 24.9 6.75s18.8-3.43 24.9-6.75c5.74-3.12 11.15-6.07 22.21-6.07v-5.66c-12.5 0-18.81 3.43-24.91 6.75-5.76 3.12-11.17 6.07-22.23 6.07zM320 57.74c-5.73 3.12-11.14 6.06-22.2 6.06s-16.47-2.94-22.2-6.06c-6.1-3.33-12.41-6.76-24.9-6.76s-18.81 3.43-24.91 6.76c-5.73 3.12-11.14 6.06-22.19 6.06s-16.47-2.94-22.2-6.06C175.29 54.41 169 51 156.49 51v5.65c11 0 16.46 2.95 22.19 6.07 6.1 3.32 12.41 6.76 24.91 6.76s18.8-3.44 24.9-6.76c5.73-3.12 11.14-6.07 22.2-6.07s16.46 2.95 22.2 6.07c6.09 3.32 12.4 6.76 24.9 6.76s18.8-3.48 24.91-6.78c5.73-3.12 11.14-6.07 22.19-6.07V51c-12.49 0-18.8 3.41-24.89 6.74zM82.07 427.74a15 15 0 0 0-3.11-2.2 23.38 23.38 0 0 0-2.4-1.19 6.37 6.37 0 0 0-1.07-.33l.82-.27a11.4 11.4 0 0 0 2.14-1.14 17.61 17.61 0 0 0 2.44-2 9.83 9.83 0 0 0 2.08-3.1 10.5 10.5 0 0 0 .87-4.33 11.61 11.61 0 0 0-4.37-9.18q-4.35-3.73-11.69-3.73a20.13 20.13 0 0 0-5.54.76 23.51 23.51 0 0 0-4.36 1.67 21.68 21.68 0 0 0-3.19 2.1 18.42 18.42 0 0 0-1.94 1.69c-.3.33-.51.58-.65.76l3.48 3.48 1.33-1.4a15.57 15.57 0 0 1 4.43-2.79 15.23 15.23 0 0 1 6.44-1.4c3.37 0 6 .81 8 2.42a7.49 7.49 0 0 1 2.89 6 7.1 7.1 0 0 1-2.91 5.69 12.28 12.28 0 0 1-7.93 2.35h-5.6v4.88h5.55q5.81 0 9.19 2.82a8.74 8.74 0 0 1 3.39 7 8.35 8.35 0 0 1-3.36 6.57q-3.39 2.81-9.19 2.8a18.1 18.1 0 0 1-4.9-.67 17.31 17.31 0 0 1-3.91-1.5 21.29 21.29 0 0 1-4.52-3.41 8.59 8.59 0 0 1-.6-.7l-3.51 3.48.72.85a12.21 12.21 0 0 0 2.11 1.88 32 32 0 0 0 3.46 2.23 21.16 21.16 0 0 0 5 1.91 23.69 23.69 0 0 0 6.2.8q7.84 0 12.84-4.28t5-10a11.3 11.3 0 0 0-1.09-5 11.52 11.52 0 0 0-2.54-3.52zM112.88 401l-20.25 48.86h5.59l5.59-13.6h23l5.59 13.6h5.6L117.75 401zm-7 30.37l9.43-23 9.42 23zM186.87 401h-18.51v48.88h5.25v-18.15h13.26a15.37 15.37 0 0 0 11.23-4.42 15.66 15.66 0 0 0 0-21.93 15.36 15.36 0 0 0-11.23-4.38zm7.6 23a10.27 10.27 0 0 1-7.6 2.87h-13.26v-20.98h13.26a10.75 10.75 0 0 1 7.6 18.06zM229.8 429.61L214.43 401h-5.6q3.38 6.43 9.65 18.2t8.52 16l-2.11 3.86a16.39 16.39 0 0 1-3.87 5.11 8.24 8.24 0 0 1-5.2 1.5 11.6 11.6 0 0 1-4.19-.68v4.87l.65.14a9.06 9.06 0 0 0 1.65.37 15.12 15.12 0 0 0 2.23.17 12.35 12.35 0 0 0 8.22-2.61q3.1-2.6 6.1-8.87L248.65 401h-5.59zM288.7 422.62l-.48.58c-.39.32-.94.75-1.65 1.28a19.12 19.12 0 0 1-2.51 1.57 16 16 0 0 1-3.54 1.3 18.09 18.09 0 0 1-4.37.52q-5.79 0-9-3.18t-3.23-9.05V401h-5.22v14.66c0 5.31 1.5 9.5 4.5 12.54s7.08 4.57 12.24 4.57a22.24 22.24 0 0 0 7-1.14 24.66 24.66 0 0 0 4.57-1.86 16.71 16.71 0 0 0 1.67-1.19v21.3H294V401h-5.3zM327.7 419.15h-13.26V401h-5.25v48.88h18.51a15.4 15.4 0 0 0 11.25-4.4 15.67 15.67 0 0 0 0-21.92 15.39 15.39 0 0 0-11.25-4.41zm7.6 23a10.27 10.27 0 0 1-7.6 2.87h-13.26V424h13.26a10.78 10.78 0 0 1 7.6 18.1z" transform="translate(-50.33 -50.98)"/>
  <path d="M310.14 375.84h22.67v-4.88h-22.67v-16.05h28.26V350h-33.51v48.88h34.22v-4.87h-28.97v-18.17zM395.47 350l-20.25 26.56L354.97 350h-4.53v48.88h5.25V359.1l19.53 25.8 19.56-25.8v39.78H400V350h-4.53zM313.46 334.25h5.25v5.25h-5.25zM325.29 334.25h5.25v5.25h-5.25z"/>
</svg>