<svg viewBox="-100 0 480 480"  xmlns="http://www.w3.org/2000/svg" style="fill: #fff;">
  <path d="M40 480h192c22.082-.027 39.973-17.918 40-40V40c-.027-22.082-17.918-39.973-40-40H40C17.918.027.027 17.918 0 40v400c.027 22.082 17.918 39.973 40 40zM192 16v24a8 8 0 0 1-8 8H88a8 8 0 0 1-8-8V16zM16 40c0-13.254 10.746-24 24-24h24v24c0 13.254 10.746 24 24 24h96c13.254 0 24-10.746 24-24V16h24c13.254 0 24 10.746 24 24v400c0 13.254-10.746 24-24 24H40c-13.254 0-24-10.746-24-24zm0 0"/>
  <path d="M160 24h16v16h-16zm0 0"/>
  <path d="M96 24h32v16H96zm0 0"/>
</svg>